PathFileType	4	(X/Y/Z)	C:/Users/opensim2020/Desktop/walking_exp_matlab/subject06_walking22_straight_01.trc	
DataRate	CameraRate	NumFrames	NumMarkers	Units	OrigDataRate	OrigDataStartFrame	OrigNumFrames	
100.00	100.00	4	44	mm	100.00	777	141	
Frame#	Time	LFHD			RFHD			LBHD			RBHD			C7			T10			CLAV			STRN			RBAK			LSHO			LUPA			LELB			LFRM			LWRA			LWRB			LFIN			RSHO			RUPA			RELB			RFRM			RWRA			RWRB			RFIN			LASI			RASI			LPSI			RPSI			LTHI			LKNE			LTIB			LANK			LHEE			LTOE			RTHI			RKNE			RTIB			RANK			RHEE			RTOE			*39			*40			*41			*42			*43			
		X1	Y1	Z1	X2	Y2	Z2	X3	Y3	Z3	X4	Y4	Z4	X5	Y5	Z5	X6	Y6	Z6	X7	Y7	Z7	X8	Y8	Z8	X9	Y9	Z9	X10	Y10	Z10	X11	Y11	Z11	X12	Y12	Z12	X13	Y13	Z13	X14	Y14	Z14	X15	Y15	Z15	X16	Y16	Z16	X17	Y17	Z17	X18	Y18	Z18	X19	Y19	Z19	X20	Y20	Z20	X21	Y21	Z21	X22	Y22	Z22	X23	Y23	Z23	X24	Y24	Z24	X25	Y25	Z25	X26	Y26	Z26	X27	Y27	Z27	X28	Y28	Z28	X29	Y29	Z29	X30	Y30	Z30	X31	Y31	Z31	X32	Y32	Z32	X33	Y33	Z33	X34	Y34	Z34	X35	Y35	Z35	X36	Y36	Z36	X37	Y37	Z37	X38	Y38	Z38	X39	Y39	Z39	X40	Y40	Z40	X41	Y41	Z41	X42	Y42	Z42	X43	Y43	Z43	X44	Y44	Z44	

36	0.350	1384.61731	-560.35321	1625.59277	1515.70142	-558.07532	1608.97473	1385.74548	-697.43372	1581.78479	1514.71033	-693.25555	1570.13220	1427.55688	-710.76849	1423.86816	1429.84351	-777.98376	1099.77051	1427.53174	-608.33795	1336.08789	1407.93079	-586.95251	1158.32654	1492.91101	-802.30084	1255.48328	1266.30469	-649.49518	1383.44299	1185.30103	-639.07562	1184.65881	1168.57800	-627.42871	1073.15808	1162.62695	-517.63531	975.78284	1216.35645	-397.78140	952.12689	1188.68359	-432.44034	897.25183	1197.51868	-344.55161	874.30743	1588.41809	-657.71277	1361.79822	1670.84949	-741.75134	1179.16113	1690.81775	-760.82056	1059.55847	1715.20825	-774.03442	940.88055	1698.05225	-741.93396	792.53290	1729.37439	-800.28998	805.05310	1737.79272	-778.71228	723.70886	1307.47656	-627.58899	922.78723	1527.91687	-601.12354	938.12323	1360.48853	-780.14948	961.53241	1526.69666	-752.44733	964.44330	1273.97656	-752.72455	622.64343	1300.84265	-792.51587	462.59250	1315.48804	-941.33563	249.42665	1364.62634	-1027.86218	101.98303	1410.60413	-1071.04858	103.09284	1361.47583	-900.69720	38.52159	1592.49146	-561.36609	624.84161	1559.44226	-510.38409	513.72174	1556.76929	-468.61179	252.67094	1509.97986	-421.22287	73.29810	1465.96790	-452.65640	39.37291	1499.41125	-267.85904	80.90320	1448.02502	-656.02954	1668.69849												 
37	0.360	1386.40295	-547.74335	1625.63989	1517.42822	-545.33246	1608.62720	1387.43164	-684.71265	1581.53772	1516.35962	-680.42200	1569.48669	1429.04944	-697.97711	1423.37476	1430.50586	-763.73346	1099.05273	1428.57678	-594.87854	1335.95276	1408.67114	-573.05664	1158.15613	1494.14111	-788.82611	1254.68201	1267.57666	-636.76337	1383.39905	1186.29639	-626.70880	1184.75928	1169.41711	-615.78766	1073.24243	1163.46643	-506.42654	975.25549	1217.45203	-386.90927	951.11230	1189.70935	-421.59720	896.36847	1198.81848	-334.06232	873.04346	1589.61646	-644.06091	1361.21680	1671.95789	-727.80341	1178.36462	1692.06006	-746.76044	1058.83105	1716.59363	-760.47083	940.22150	1699.84583	-729.17676	791.69305	1730.94739	-787.55756	804.56763	1739.70459	-766.31372	723.14459	1307.51050	-613.57471	922.28308	1528.20227	-586.46100	938.10620	1360.96094	-765.85590	961.18304	1527.45996	-738.05432	964.59406	1274.35889	-739.62061	621.95428	1301.12207	-779.75128	461.83569	1315.78345	-933.78577	252.51627	1364.48376	-1024.61987	107.69424	1410.62830	-1067.70435	110.54417	1361.88635	-900.26331	38.53002	1591.65027	-546.65448	625.20801	1557.74048	-496.61166	513.84900	1554.72388	-460.39481	251.18404	1507.83484	-417.93488	72.00114	1463.59509	-450.34549	41.72107	1498.99097	-263.90680	70.34496	1449.96594	-643.39227	1668.31262												 
38	0.370	1388.07581	-535.03186	1626.41028	1519.17981	-532.41272	1609.07581	1389.17896	-671.86621	1581.75427	1518.07312	-667.45575	1569.38501	1430.70728	-685.06580	1423.64978	1430.78381	-749.31665	1098.76147	1429.72668	-581.35602	1336.34204	1409.56079	-559.28400	1158.60156	1495.50745	-775.38416	1254.32312	1268.79321	-624.00293	1383.81189	1187.25745	-614.32861	1184.97314	1170.22778	-604.21594	1073.46509	1164.27148	-495.59805	974.90796	1218.49707	-376.25180	949.79370	1190.35986	-411.07626	895.32391	1199.80408	-323.91803	871.44916	1590.97656	-630.28961	1361.10938	1673.23584	-713.52625	1177.91504	1693.41272	-732.29437	1058.39319	1717.99756	-746.40796	939.82788	1701.46582	-715.99384	791.09381	1732.68298	-774.23462	804.34265	1741.59351	-753.49274	722.96460	1307.63403	-598.33765	921.93457	1528.44775	-571.75024	938.51270	1361.06287	-750.87250	961.11401	1527.98743	-723.65247	965.35858	1274.92773	-725.97736	621.28949	1301.92749	-766.78674	461.39883	1316.20850	-925.91840	256.17007	1364.04651	-1020.57233	113.92325	1410.05981	-1063.42126	118.52100	1362.25842	-899.55841	38.60701	1591.28955	-532.75024	625.95471	1556.45422	-483.47717	514.73840	1553.30701	-451.39343	251.71753	1508.39331	-412.07516	73.83608	1464.83789	-447.79547	44.66695	1499.00415	-259.23001	62.98920	1451.89209	-630.76379	1668.50269												 
39	0.380	1389.86560	-522.24976	1627.81555	1520.83789	-519.41559	1610.30591	1391.01965	-658.82648	1582.53882	1519.87671	-654.26233	1570.05798	1432.38550	-671.66589	1424.65710	1430.51611	-735.05408	1099.22986	1431.09204	-567.82776	1337.38977	1410.61597	-545.63068	1159.59753	1496.87769	-761.63226	1254.74731	1269.96130	-611.07086	1384.60510	1188.40930	-602.14661	1185.52917	1171.02124	-592.82330	1073.93958	1165.11633	-485.47644	974.38226	1219.36621	-366.01685	948.12030	1191.05457	-401.40656	894.13953	1200.61499	-314.12274	869.54803	1592.52271	-616.30627	1361.56018	1674.67029	-698.77039	1177.81152	1694.82336	-717.41168	1058.32996	1719.45117	-731.84692	939.73212	1703.04858	-702.28198	790.99933	1734.25952	-760.37646	804.44440	1743.32727	-740.05402	722.99695	1307.96472	-583.45337	922.07544	1528.77563	-556.93140	939.52826	1360.40820	-735.70923	961.54657	1527.56396	-709.43744	967.43286	1275.95044	-711.73962	621.01477	1302.86609	-752.97137	461.40616	1316.85327	-917.07324	260.39655	1363.76978	-1015.55450	120.94809	1409.54150	-1057.99475	127.24170	1362.80164	-898.43671	38.91919	1592.09839	-519.69885	627.22070	1556.75403	-470.90915	516.62091	1555.03333	-439.86734	253.99860	1509.24402	-407.51532	73.41833	1465.83789	-444.25146	45.80046	1499.96802	-255.53539	58.49613	1453.84778	-618.12335	1669.43250												 
